<svg width="96" height="96" xmlns="http://www.w3.org/2000/svg" xmlns:xlink="http://www.w3.org/1999/xlink" xml:space="preserve" overflow="hidden"><defs><clipPath id="clip0"><rect x="609" y="32" width="96" height="96"/></clipPath></defs><g clip-path="url(#clip0)" transform="translate(-609 -32)"><path d="M668.3 69.3C664.1 69.3 660.8 65.9 660.8 61.8 660.8 57.7 664.2 54.3 668.3 54.3 672.5 54.3 675.8 57.7 675.8 61.8 675.8 65.9 672.4 69.3 668.3 69.3ZM685.2 57.1C684.8 55.7 684.3 54.4 683.6 53.2L685.2 48.5 681.6 44.9 676.9 46.5C675.7 45.8 674.4 45.3 673 44.9L670.8 40.5 665.8 40.5 663.6 44.9C662.2 45.3 660.9 45.8 659.7 46.5L655 44.9 651.4 48.5 653 53.2C652.3 54.4 651.8 55.7 651.4 57.1L647 59.3 647 64.3 651.4 66.5C651.8 67.9 652.3 69.2 653 70.4L651.4 75.1 654.9 78.6 659.6 77C660.8 77.7 662.1 78.2 663.5 78.6L665.7 83 670.7 83 672.9 78.6C674.3 78.2 675.6 77.7 676.8 77L681.5 78.6 685.1 75.1 683.5 70.4C684.2 69.2 684.8 67.8 685.2 66.5L689.6 64.3 689.6 59.3 685.2 57.1Z" fill="#2F5597"/><path d="M645.7 105.7C641.5 105.7 638.2 102.3 638.2 98.2 638.2 94 641.6 90.7 645.7 90.7 649.9 90.7 653.2 94.1 653.2 98.2 653.2 102.3 649.9 105.7 645.7 105.7L645.7 105.7ZM661 89.6 662.6 84.9 659 81.3 654.3 82.9C653.1 82.2 651.7 81.7 650.4 81.3L648.2 76.9 643.2 76.9 641 81.3C639.6 81.7 638.3 82.2 637.1 82.9L632.4 81.3 628.9 84.8 630.4 89.5C629.7 90.7 629.2 92.1 628.8 93.4L624.4 95.6 624.4 100.6 628.8 102.8C629.2 104.2 629.7 105.5 630.4 106.7L628.9 111.4 632.4 114.9 637.1 113.4C638.3 114.1 639.6 114.6 641 115L643.2 119.4 648.2 119.4 650.4 115C651.8 114.6 653.1 114.1 654.3 113.4L659 115 662.5 111.4 661 106.8C661.7 105.6 662.2 104.3 662.6 102.9L667 100.7 667 95.7 662.6 93.5C662.2 92.1 661.7 90.8 661 89.6Z" fill="#2F5597"/></g></svg>